<svg width="36" height="36" viewBox="0 0 36 36" fill="none" xmlns="http://www.w3.org/2000/svg">
<path d="M12.8573 3.77699C7.206 3.77699 2.625 8.35799 2.625 14.0092C2.62363 15.5719 2.98079 17.1141 3.66901 18.517C4.35723 19.92 5.35815 21.1464 6.59475 22.1017C5.92182 21.2623 5.4998 20.2505 5.37734 19.1816C5.25488 18.1126 5.43696 17.0309 5.9026 16.061C6.36824 15.091 7.09848 14.2724 8.00915 13.6995C8.91982 13.1266 9.97385 12.8226 11.0498 12.8227H13.4768C14.6763 12.8227 15.8267 12.3462 16.6749 11.498C17.5231 10.6498 17.9996 9.49941 17.9996 8.29987C17.9996 7.10033 17.5231 5.94992 16.6749 5.10171C15.8267 4.25351 14.6763 3.77699 13.4768 3.77699H12.8573Z" stroke="#268BCA" stroke-width="2" stroke-linecap="round" stroke-linejoin="round"/>
<path d="M23.1429 3.77699C28.7941 3.77699 33.3751 8.35799 33.3751 14.0092C33.3765 15.5719 33.0193 17.1141 32.3311 18.517C31.6429 19.92 30.642 21.1464 29.4054 22.1017C30.0783 21.2623 30.5003 20.2505 30.6228 19.1816C30.7452 18.1126 30.5632 17.0309 30.0975 16.061C29.6319 15.091 28.9016 14.2724 27.991 13.6995C27.0803 13.1266 26.0263 12.8226 24.9504 12.8227H22.5234C21.3238 12.8227 20.1734 12.3462 19.3252 11.498C18.477 10.6498 18.0005 9.49941 18.0005 8.29987C18.0005 7.10033 18.477 5.94992 19.3252 5.10171C20.1734 4.25351 21.3238 3.77699 22.5234 3.77699H23.1429Z" stroke="#268BCA" stroke-width="2" stroke-linecap="round" stroke-linejoin="round"/>
<path d="M6.59473 22.1025L15.8085 31.3155C16.0962 31.6035 16.4378 31.832 16.8138 31.9879C17.1898 32.1437 17.5929 32.224 18 32.224C18.407 32.224 18.8101 32.1437 19.1861 31.9879C19.5622 31.832 19.9038 31.6035 20.1915 31.3155L29.4052 22.1017" stroke="#268BCA" stroke-width="2" stroke-linecap="round" stroke-linejoin="round"/>
<path d="M7.92456 23.4323C10.7671 26.2755 15.3773 26.2755 18.2206 23.4323L22.2991 19.3538C23.6936 17.9586 24.4771 16.0667 24.4771 14.094V12.8228" stroke="#268BCA" stroke-width="2" stroke-linecap="round" stroke-linejoin="round"/>
<path d="M18.3676 23.2853L14.4361 19.3538C13.0412 17.9587 12.2575 16.0668 12.2573 14.094V12.8228" stroke="#268BCA" stroke-width="2" stroke-linecap="round" stroke-linejoin="round"/>
</svg>
