<svg width="36" height="36" viewBox="0 0 36 36" fill="none" xmlns="http://www.w3.org/2000/svg">
<mask id="path-1-inside-1_125_189" fill="white">
<path d="M9.138 28.347C8.148 27.347 7.3775 26.2035 6.8265 24.9165C6.2755 23.6295 6 22.299 6 20.925C6 19.542 6.2665 18.1635 6.7995 16.7895C7.3325 15.4155 8.1875 14.1405 9.3645 12.9645C10.3155 12.0115 11.5215 11.2565 12.9825 10.6995C14.4425 10.1415 16.03 9.734 17.745 9.477C19.46 9.22 21.237 9.0785 23.076 9.0525C24.915 9.0265 26.6865 9.0705 28.3905 9.1845C28.5135 10.8345 28.5615 12.5745 28.5345 14.4045C28.5075 16.2365 28.359 18.0125 28.089 19.7325C27.819 21.4525 27.4065 23.0485 26.8515 24.5205C26.2965 25.9925 25.55 27.1975 24.612 28.1355C23.46 29.3075 22.217 30.1615 20.883 30.6975C19.55 31.2325 18.2115 31.5 16.8675 31.5C15.4595 31.5 14.067 31.2245 12.69 30.6735C11.313 30.1225 10.129 29.347 9.138 28.347ZM11.6655 28.4535C12.4485 28.9755 13.298 29.3635 14.214 29.6175C15.13 29.8725 16.017 30 16.875 30C18.038 30 19.188 29.7735 20.325 29.3205C21.464 28.8675 22.536 28.119 23.541 27.075C23.988 26.625 24.4405 25.9935 24.8985 25.1805C25.3565 24.3675 25.7535 23.3055 26.0895 21.9945C26.4255 20.6835 26.68 19.096 26.853 17.232C27.026 15.368 27.069 13.149 26.982 10.575C25.757 10.525 24.3665 10.516 22.8105 10.548C21.2545 10.58 19.6995 10.713 18.1455 10.947C16.5905 11.182 15.1305 11.54 13.7655 12.021C12.3995 12.501 11.308 13.15 10.491 13.968C9.385 15.073 8.61 16.219 8.166 17.406C7.722 18.593 7.5 19.699 7.5 20.724C7.5 22.083 7.7715 23.3525 8.3145 24.5325C8.8575 25.7125 9.515 26.633 10.287 27.294C10.914 25.525 11.883 23.8275 13.194 22.2015C14.506 20.5755 16.341 19.0595 18.699 17.6535C16.975 19.1515 15.526 20.7455 14.352 22.4355C13.178 24.1255 12.2825 26.1315 11.6655 28.4535Z"/>
</mask>
<path d="M9.138 28.347L4.16344 33.2718L4.16593 33.2743L9.138 28.347ZM6 20.925H-1H6ZM9.3645 12.9645L14.3121 17.9164L14.3194 17.909L9.3645 12.9645ZM12.9825 10.6995L15.4761 17.2403L15.4815 17.2382L12.9825 10.6995ZM28.3905 9.1845L35.3711 8.66413L34.9195 2.60565L28.8578 2.20011L28.3905 9.1845ZM28.5345 14.4045L21.5353 14.3012L21.5353 14.3013L28.5345 14.4045ZM24.612 28.1355L19.6623 23.1858L19.641 23.2071L19.6198 23.2285L24.612 28.1355ZM20.883 30.6975L23.4903 37.1938L23.4928 37.1928L20.883 30.6975ZM11.6655 28.4535L4.90026 26.6558L3.61349 31.4984L7.7826 34.2779L11.6655 28.4535ZM14.214 29.6175L16.0913 22.8739L16.0845 22.872L14.214 29.6175ZM20.325 29.3205L17.7381 22.8161L17.7341 22.8176L20.325 29.3205ZM23.541 27.075L18.5747 22.1418L18.536 22.1808L18.498 22.2203L23.541 27.075ZM26.982 10.575L33.978 10.3385L33.7586 3.84577L27.2675 3.58082L26.982 10.575ZM18.1455 10.947L17.1032 4.02503L17.0995 4.02559L18.1455 10.947ZM13.7655 12.021L16.0861 18.6251L16.092 18.6231L13.7655 12.021ZM10.491 13.968L15.4385 18.92L15.4438 18.9147L10.491 13.968ZM7.5 20.724H0.5H7.5ZM10.287 27.294L5.7343 32.6112L13.4788 39.2422L16.8848 29.6325L10.287 27.294ZM13.194 22.2015L7.74627 17.8058L7.74463 17.8078L13.194 22.2015ZM18.699 17.6535L23.2903 22.9375L15.114 11.6412L18.699 17.6535ZM9.138 28.347L14.1126 23.4222C13.7381 23.044 13.4646 22.6356 13.2615 22.1615L6.8265 24.9165L0.391451 27.6715C1.29045 29.7714 2.55786 31.65 4.16344 33.2718L9.138 28.347ZM6.8265 24.9165L13.2615 22.1615C13.0761 21.7282 13 21.3337 13 20.925H6H-1C-1 23.2643 -0.525066 25.5308 0.391451 27.6715L6.8265 24.9165ZM6 20.925H13C13 20.4635 13.0851 19.9413 13.3257 19.3211L6.7995 16.7895L0.273331 14.2579C-0.552094 16.3857 -1 18.6205 -1 20.925H6ZM6.7995 16.7895L13.3257 19.3211C13.4638 18.965 13.7351 18.4929 14.3121 17.9164L9.3645 12.9645L4.41686 8.01265C2.63991 9.78808 1.2012 11.866 0.273331 14.2579L6.7995 16.7895ZM9.3645 12.9645L14.3194 17.909C14.4681 17.76 14.7911 17.5014 15.4761 17.2403L12.9825 10.6995L10.4889 4.15872C8.25189 5.01156 6.16287 6.26295 4.40956 8.01995L9.3645 12.9645ZM12.9825 10.6995L15.4815 17.2382C16.4215 16.879 17.5134 16.5899 18.7824 16.3997L17.745 9.477L16.7076 2.5543C14.5466 2.87813 12.4635 3.40402 10.4835 4.16079L12.9825 10.6995ZM17.745 9.477L18.7824 16.3997C20.1686 16.192 21.6313 16.0736 23.175 16.0518L23.076 9.0525L22.977 2.0532C20.8427 2.08338 18.7514 2.24803 16.7076 2.5543L17.745 9.477ZM23.076 9.0525L23.175 16.0518C24.8394 16.0283 26.4214 16.0684 27.9232 16.1689L28.3905 9.1845L28.8578 2.20011C26.9516 2.07259 24.9906 2.02473 22.977 2.0532L23.076 9.0525ZM28.3905 9.1845L21.4099 9.70488C21.5159 11.127 21.5595 12.6578 21.5353 14.3012L28.5345 14.4045L35.5337 14.5078C35.5635 12.4912 35.5111 10.542 35.3711 8.66413L28.3905 9.1845ZM28.5345 14.4045L21.5353 14.3013C21.5129 15.8214 21.3901 17.2685 21.1737 18.647L28.089 19.7325L35.0043 20.818C35.3279 18.7565 35.5021 16.6516 35.5337 14.5077L28.5345 14.4045ZM28.089 19.7325L21.1737 18.647C20.9701 19.9438 20.671 21.0711 20.3016 22.0509L26.8515 24.5205L33.4014 26.9901C34.142 25.0259 34.6679 22.9612 35.0043 20.818L28.089 19.7325ZM26.8515 24.5205L20.3016 22.0509C20.0332 22.7627 19.7781 23.0699 19.6623 23.1858L24.612 28.1355L29.5618 33.0852C31.3219 31.3251 32.5598 29.2223 33.4014 26.9901L26.8515 24.5205ZM24.612 28.1355L19.6198 23.2285C19.0477 23.8106 18.5928 24.0738 18.2732 24.2022L20.883 30.6975L23.4928 37.1928C25.8412 36.2492 27.8723 34.8044 29.6042 33.0425L24.612 28.1355ZM20.883 30.6975L18.2757 24.2012C17.7142 24.4266 17.2582 24.5 16.8675 24.5V31.5V38.5C19.1648 38.5 21.3858 38.0384 23.4903 37.1938L20.883 30.6975ZM16.8675 31.5V24.5C16.3973 24.5 15.8852 24.4125 15.2905 24.1745L12.69 30.6735L10.0895 37.1725C12.2488 38.0366 14.5217 38.5 16.8675 38.5V31.5ZM12.69 30.6735L15.2905 24.1745C14.7548 23.9601 14.3907 23.7028 14.1101 23.4197L9.138 28.347L4.16593 33.2743C5.86731 34.9912 7.87115 36.2849 10.0895 37.1725L12.69 30.6735ZM11.6655 28.4535L7.7826 34.2779C9.18963 35.2159 10.7195 35.9126 12.3435 36.363L14.214 29.6175L16.0845 22.872C15.8765 22.8144 15.7074 22.7351 15.5484 22.6292L11.6655 28.4535ZM14.214 29.6175L12.3367 36.3611C13.7987 36.7681 15.3182 37 16.875 37V30V23C16.7158 23 16.4613 22.9769 16.0913 22.8739L14.214 29.6175ZM16.875 30V37C18.9713 37 20.9983 36.5874 22.9159 35.8234L20.325 29.3205L17.7341 22.8176C17.3777 22.9596 17.1047 23 16.875 23V30ZM20.325 29.3205L22.9119 35.8249C25.1313 34.9423 27.0118 33.5629 28.584 31.9297L23.541 27.075L18.498 22.2203C18.0602 22.6751 17.7967 22.7928 17.7381 22.8161L20.325 29.3205ZM23.541 27.075L28.5073 32.0082C29.5522 30.9562 30.3614 29.7452 30.9973 28.6162L24.8985 25.1805L18.7997 21.7448C18.6714 21.9725 18.5782 22.1132 18.5256 22.1867C18.4708 22.2631 18.4836 22.2335 18.5747 22.1418L23.541 27.075ZM24.8985 25.1805L30.9973 28.6162C31.8576 27.0892 32.4441 25.3956 32.8703 23.7324L26.0895 21.9945L19.3087 20.2566C19.0629 21.2155 18.8554 21.6459 18.7997 21.7448L24.8985 25.1805ZM26.0895 21.9945L32.8703 23.7324C33.3254 21.9569 33.6278 19.9825 33.823 17.8789L26.853 17.232L19.883 16.5851C19.7322 18.2095 19.5256 19.4101 19.3087 20.2566L26.0895 21.9945ZM26.853 17.232L33.823 17.8789C34.0313 15.6355 34.0716 13.1063 33.978 10.3385L26.982 10.575L19.986 10.8115C20.0664 13.1917 20.0207 15.1005 19.883 16.5851L26.853 17.232ZM26.982 10.575L27.2675 3.58082C25.8675 3.52368 24.3297 3.51528 22.6666 3.54948L22.8105 10.548L22.9544 17.5465C24.4033 17.5167 25.6466 17.5263 26.6965 17.5692L26.982 10.575ZM22.8105 10.548L22.6666 3.54948C20.8069 3.58773 18.9518 3.74668 17.1032 4.02504L18.1455 10.947L19.1878 17.869C20.4472 17.6793 21.7021 17.5723 22.9544 17.5465L22.8105 10.548ZM18.1455 10.947L17.0995 4.02559C15.1458 4.32085 13.2539 4.77939 11.4391 5.41891L13.7655 12.021L16.092 18.6231C17.0071 18.3006 18.0352 18.0432 19.1915 17.8684L18.1455 10.947ZM13.7655 12.021L11.4449 5.41686C9.33171 6.15941 7.26019 7.29721 5.53823 9.02128L10.491 13.968L15.4438 18.9147C15.3558 19.0028 15.4673 18.8426 16.0861 18.6251L13.7655 12.021ZM10.491 13.968L5.54349 9.01602C3.89 10.668 2.47686 12.6352 1.60965 14.9536L8.166 17.406L14.7223 19.8584C14.7431 19.8028 14.88 19.478 15.4385 18.92L10.491 13.968ZM8.166 17.406L1.60965 14.9536C0.939158 16.7461 0.5 18.6898 0.5 20.724H7.5H14.5C14.5 20.7082 14.5048 20.4399 14.7223 19.8584L8.166 17.406ZM7.5 20.724H0.5C0.5 23.0454 0.970621 25.3185 1.95548 27.4587L8.3145 24.5325L14.6735 21.6063C14.5724 21.3865 14.5 21.1206 14.5 20.724H7.5ZM8.3145 24.5325L1.95548 27.4587C2.80762 29.3105 4.01244 31.1369 5.7343 32.6112L10.287 27.294L14.8397 21.9768C15.0176 22.1291 14.9074 22.1145 14.6735 21.6063L8.3145 24.5325ZM10.287 27.294L16.8848 29.6325C17.2197 28.6877 17.7729 27.6748 18.6434 26.5952L13.194 22.2015L7.74463 17.8078C5.99314 19.9802 4.60828 22.3623 3.68917 24.9555L10.287 27.294ZM13.194 22.2015L18.6417 26.5972C19.2986 25.7831 20.4265 24.7734 22.284 23.6658L18.699 17.6535L15.114 11.6412C12.2555 13.3457 9.71337 15.3679 7.74627 17.8058L13.194 22.2015ZM18.699 17.6535L14.1077 12.3695C11.9932 14.2069 10.1419 16.2265 8.60303 18.4418L14.352 22.4355L20.101 26.4292C20.9101 25.2645 21.9568 24.0961 23.2903 22.9375L18.699 17.6535ZM14.352 22.4355L8.60303 18.4418C6.89486 20.9008 5.69169 23.6774 4.90026 26.6558L11.6655 28.4535L18.4307 30.2512C18.8733 28.5856 19.4611 27.3502 20.101 26.4292L14.352 22.4355Z" fill="#268BCA" mask="url(#path-1-inside-1_125_189)"/>
</svg>
